<svg id="Layer_1" data-name="Layer 1" xmlns="http://www.w3.org/2000/svg" viewBox="0 0 256 256"><defs><style>.cls-1{fill:#f24922;}.cls-2{fill:#fff;}</style></defs><title>Artboard 1</title><path class="cls-1" d="M16,71.78V184.22A13.55,13.55,0,0,0,22.85,196l98.3,56.22a13.82,13.82,0,0,0,13.7,0L233.15,196A13.55,13.55,0,0,0,240,184.22V71.78A13.55,13.55,0,0,0,233.15,60L134.85,3.81a13.81,13.81,0,0,0-13.7,0L22.85,60A13.55,13.55,0,0,0,16,71.78Z"/><circle class="cls-2" cx="156" cy="156" r="12"/><path class="cls-2" d="M184,88H168V72a8,8,0,0,0-8-8h-8a8,8,0,0,0-8,8V88H112V72a8,8,0,0,0-8-8H96a8,8,0,0,0-8,8V88H72a8,8,0,0,0-8,8v16H192V96A8,8,0,0,0,184,88Z"/><path class="cls-2" d="M64,184a8,8,0,0,0,8,8H184a8,8,0,0,0,8-8V120H64Zm36-48h56a20,20,0,1,1,0,40H100a20,20,0,0,1,0-40Z"/></svg>